<svg width="435" height="496" viewBox="0 0 435 496" fill="none" xmlns="http://www.w3.org/2000/svg">
<path d="M226.816 434.858C184.48 533.821 109.988 476.092 78.0347 434.858C74.42 434.858 63.6337 421.663 49.4063 368.883C31.6219 302.908 69.7932 453.088 153.509 292.056C237.226 131.025 -49.0582 330.253 10.8012 92.3947C70.6607 -145.463 199.488 168.353 297.953 129.723C396.417 91.0924 473.194 205.247 398.586 220.873C323.979 236.498 279.735 311.155 226.816 434.858Z" stroke="#3FFD55" stroke-width="5"/>
<path d="M232.816 440.858C190.48 539.821 115.988 482.092 84.0347 440.858C80.42 440.858 69.6337 427.663 55.4063 374.883C37.6219 308.908 75.7932 459.088 159.509 298.056C243.226 137.025 -43.0582 336.253 16.8012 98.3947C76.6607 -139.463 205.488 174.353 303.953 135.723C402.417 97.0924 479.194 211.247 404.586 226.873C329.979 242.498 285.735 317.155 232.816 440.858Z" stroke="black"/>
</svg>
